<?xml version="1.0" standalone="no"?>
<!DOCTYPE svg PUBLIC "-//W3C//DTD SVG 20010904//EN"
 "http://www.w3.org/TR/2001/REC-SVG-20010904/DTD/svg10.dtd">
<svg version="1.0" xmlns="http://www.w3.org/2000/svg"
 width="1971.000000pt" height="1971.000000pt" viewBox="0 0 1971.000000 1971.000000"
 preserveAspectRatio="xMidYMid meet">
<metadata>
Created by potrace 1.14, written by Peter Selinger 2001-2017
</metadata>
<g transform="translate(0.000000,1971.000000) scale(0.100000,-0.100000)"
fill="#000000" stroke="none">
<path d="M10077 19653 c-4 -3 -29 -7 -55 -8 -27 -1 -53 -4 -58 -8 -11 -7 -75
-16 -142 -21 -23 -2 -45 -6 -49 -9 -3 -4 -12 -2 -20 4 -8 7 -13 8 -13 1 0 -5
-13 -8 -30 -7 -16 1 -30 0 -30 -4 0 -4 -8 -7 -17 -8 -36 -3 -58 -8 -63 -15 -5
-6 -77 -20 -107 -21 -7 0 -13 -5 -13 -10 0 -6 -3 -8 -6 -4 -8 8 -64 -13 -64
-25 0 -5 -4 -6 -10 -3 -5 3 -10 -1 -10 -9 0 -9 -3 -15 -7 -15 -19 3 -36 -2
-29 -8 8 -8 -87 -41 -120 -42 -12 -1 -33 -12 -47 -25 -14 -13 -28 -21 -31 -18
-3 3 -6 0 -6 -7 0 -7 -4 -9 -10 -6 -5 3 -10 1 -10 -4 0 -6 -4 -11 -10 -11 -18
0 -50 -34 -50 -53 0 -10 -4 -16 -9 -12 -5 3 -12 -3 -15 -13 -4 -10 -18 -25
-31 -32 -14 -7 -25 -19 -25 -27 0 -7 -4 -13 -9 -13 -8 0 -24 -37 -22 -52 1 -5
-4 -8 -9 -8 -6 0 -10 -4 -10 -10 0 -17 -47 -79 -55 -72 -3 4 -6 3 -4 -3 1 -5
-3 -23 -10 -40 -7 -16 -13 -38 -14 -47 -1 -10 -5 -18 -10 -18 -4 0 -6 -4 -2
-9 3 -5 -4 -12 -15 -16 -17 -5 -18 -9 -7 -27 9 -16 9 -22 0 -25 -7 -3 -13 -11
-13 -19 0 -9 -4 -13 -8 -10 -5 3 -8 -5 -7 -17 1 -12 -2 -24 -6 -27 -5 -3 -9
-20 -11 -38 -1 -18 -5 -32 -8 -32 -3 0 -6 -8 -6 -17 -1 -21 -10 -61 -18 -83
-3 -8 -8 -33 -11 -55 -10 -68 -17 -119 -18 -132 0 -7 -4 -13 -9 -13 -5 0 -6
-4 -3 -10 3 -5 3 -16 -2 -22 -15 -24 -31 -78 -24 -83 6 -3 6 -95 1 -102 -2 -2
-3 -6 -4 -10 -1 -5 -10 -26 -19 -47 -14 -31 -15 -42 -5 -54 11 -13 11 -14 0
-8 -11 7 -12 4 -3 -11 5 -11 9 -33 7 -49 -1 -16 1 -34 6 -41 5 -6 5 -14 -2
-18 -7 -4 -7 -12 0 -26 6 -10 7 -19 3 -19 -4 0 -8 -69 -7 -153 0 -83 -2 -156
-5 -161 -2 -5 -5 -31 -6 -58 -1 -27 -5 -51 -8 -54 -3 -3 -2 -17 3 -30 5 -13 6
-24 1 -24 -9 0 -8 -40 2 -56 3 -6 3 -14 -1 -18 -12 -12 -11 -157 1 -149 6 4 7
1 2 -8 -13 -20 -13 -49 -1 -49 7 0 7 -3 1 -8 -15 -11 -17 -114 -2 -105 8 4 7
1 -1 -9 -9 -12 -10 -18 -2 -23 8 -5 8 -11 -1 -21 -9 -11 -9 -14 0 -14 8 0 9
-5 1 -19 -6 -12 -6 -22 -1 -26 6 -3 10 -13 9 -23 0 -9 3 -28 7 -42 7 -27 17
-87 18 -107 0 -7 4 -13 9 -13 5 0 7 -4 4 -8 -3 -5 1 -20 9 -35 8 -16 10 -27 4
-27 -6 0 -3 -7 6 -16 9 -9 14 -23 11 -30 -3 -8 -1 -14 4 -14 6 0 10 -7 10 -15
0 -8 4 -15 8 -15 5 0 8 -13 7 -30 -1 -17 4 -31 12 -34 8 -3 12 -10 8 -15 -3
-5 -1 -12 4 -16 6 -3 8 -12 5 -19 -3 -8 -1 -17 5 -21 6 -3 11 -17 11 -31 0
-13 4 -24 8 -24 5 0 15 -18 22 -40 7 -22 18 -40 23 -40 6 0 8 -3 5 -6 -3 -3
-2 -21 4 -41 13 -49 19 -76 20 -90 1 -7 5 -13 9 -13 5 0 6 -6 3 -14 -3 -8 -1
-17 5 -21 6 -3 11 -13 11 -21 0 -9 6 -22 13 -29 26 -30 32 -41 35 -63 1 -13 9
-30 17 -39 8 -8 13 -19 10 -24 -4 -5 -1 -9 5 -9 6 0 8 -4 5 -10 -3 -5 -1 -10
5 -10 6 0 9 -4 6 -9 -3 -5 1 -14 8 -21 8 -6 18 -25 21 -41 4 -16 10 -29 14
-29 4 0 8 -10 8 -22 1 -13 7 -24 13 -26 5 -2 8 -8 4 -13 -3 -5 2 -16 10 -25 9
-9 14 -20 11 -25 -4 -5 -1 -9 4 -9 6 0 11 -6 11 -12 0 -7 7 -26 15 -41 8 -15
10 -25 4 -21 -5 3 5 -18 23 -48 18 -29 36 -55 40 -56 5 -2 6 -8 2 -13 -3 -5 2
-9 10 -9 8 0 18 -9 21 -20 3 -11 11 -20 16 -20 6 0 8 -3 6 -7 -5 -10 34 -47
54 -51 7 -2 19 -11 24 -20 16 -26 24 -72 13 -72 -6 0 -8 -6 -5 -13 3 -7 -4
-19 -15 -26 -11 -7 -17 -19 -14 -27 3 -8 1 -14 -5 -14 -6 0 -8 -4 -4 -9 3 -5
1 -12 -5 -16 -6 -4 -8 -11 -5 -16 4 -5 1 -9 -5 -9 -7 0 -10 -7 -6 -15 3 -8 2
-15 -3 -15 -8 0 -19 -29 -27 -70 -2 -8 -7 -16 -13 -18 -5 -2 -7 -10 -4 -18 3
-8 0 -14 -6 -14 -6 0 -10 -3 -9 -7 2 -12 -14 -47 -26 -55 -7 -5 -7 -8 2 -8 6
0 12 -5 12 -10 0 -6 -11 -8 -24 -6 -19 3 -23 1 -19 -11 4 -11 2 -14 -5 -9 -7
4 -12 2 -12 -3 0 -6 -6 -10 -12 -8 -7 1 -12 -4 -10 -11 1 -7 -9 -17 -23 -24
-13 -6 -22 -15 -19 -20 3 -5 -6 -20 -19 -32 -14 -13 -23 -27 -20 -30 4 -3 1
-6 -6 -6 -7 0 -9 -4 -6 -10 3 -5 -1 -10 -9 -10 -9 0 -16 -5 -16 -10 0 -11 -13
-28 -44 -60 -11 -11 -17 -20 -13 -20 3 0 -12 -19 -33 -42 -22 -23 -40 -48 -40
-55 0 -8 -4 -11 -10 -8 -5 3 -10 1 -10 -5 0 -6 -7 -18 -15 -27 -8 -8 -13 -19
-10 -24 4 -5 1 -9 -5 -9 -10 0 -35 -48 -32 -62 1 -5 -2 -8 -7 -8 -5 0 -11 -9
-14 -21 -4 -13 -10 -18 -18 -13 -7 4 -10 3 -5 -4 3 -6 0 -17 -8 -25 -8 -8 -12
-17 -9 -21 4 -3 1 -6 -6 -6 -7 0 -9 -4 -6 -10 3 -5 2 -10 -2 -10 -5 0 -9 -9
-10 -20 -1 -11 -9 -27 -17 -36 -9 -8 -19 -26 -22 -40 -3 -13 -10 -24 -15 -24
-4 0 -6 -9 -4 -20 2 -13 -2 -20 -11 -20 -8 0 -14 -7 -14 -15 0 -8 -5 -15 -10
-15 -6 0 -8 -11 -6 -24 2 -13 2 -27 -2 -31 -3 -3 -7 -16 -8 -28 -4 -37 -13
-68 -24 -81 -5 -7 -7 -15 -4 -18 3 -4 -5 -28 -17 -55 -13 -26 -22 -51 -21 -55
1 -5 -3 -8 -8 -8 -5 0 -9 -3 -8 -7 1 -9 -15 -52 -38 -97 -8 -16 -14 -33 -14
-37 0 -5 -8 -18 -17 -29 -10 -11 -18 -24 -18 -28 0 -4 -11 -23 -25 -42 -14
-19 -24 -36 -23 -37 5 -8 -11 -43 -21 -43 -6 0 -4 -5 4 -10 12 -8 12 -10 1
-10 -11 0 -11 -3 0 -17 8 -9 9 -14 3 -10 -7 4 -14 0 -18 -8 -3 -8 0 -15 7 -15
8 0 8 -3 -2 -9 -8 -5 -11 -16 -8 -25 4 -9 1 -16 -6 -16 -8 0 -6 -4 3 -10 8 -5
10 -10 4 -10 -8 0 -9 -11 -4 -35 5 -24 4 -35 -4 -35 -6 0 -4 -5 4 -10 12 -8
12 -10 1 -10 -10 0 -11 -3 -2 -14 7 -8 8 -16 4 -19 -5 -3 -8 -21 -7 -41 1 -20
-1 -36 -5 -36 -4 0 -7 -10 -8 -22 -1 -11 -8 -25 -15 -29 -10 -7 -10 -9 2 -9 9
0 11 -3 5 -8 -5 -4 -10 -42 -10 -84 0 -45 -4 -78 -10 -78 -5 0 -3 -5 5 -10 11
-7 11 -10 2 -10 -10 0 -10 -5 -2 -20 8 -15 8 -20 -2 -20 -8 0 -9 -3 -3 -8 6
-4 10 -23 10 -42 0 -19 -4 -38 -10 -42 -6 -5 -5 -8 4 -8 11 0 11 -3 1 -15 -7
-9 -8 -15 -2 -15 6 0 9 -8 7 -17 -1 -10 2 -24 8 -30 6 -9 6 -13 -3 -13 -9 0
-9 -4 -2 -13 12 -14 21 -217 10 -217 -4 0 -5 -9 -3 -20 2 -11 -1 -20 -7 -20
-7 0 -7 -4 1 -13 6 -8 9 -16 6 -19 -3 -2 -5 -32 -6 -66 -1 -35 -5 -65 -10 -68
-4 -2 -6 -11 -2 -19 3 -8 0 -15 -7 -15 -10 0 -10 -3 -1 -14 9 -10 9 -15 1 -18
-7 -2 -13 -34 -15 -73 -2 -60 -7 -92 -15 -115 -1 -3 -1 -13 0 -24 1 -12 -2
-16 -11 -11 -9 6 -10 4 -3 -6 10 -16 12 -69 3 -69 -8 0 -5 -38 4 -46 3 -4 3
-14 -2 -23 -4 -9 -8 -36 -9 -61 0 -25 -1 -49 -2 -55 -1 -5 -1 -12 0 -15 9 -23
6 -38 -6 -33 -9 3 -14 -2 -14 -15 0 -12 -5 -24 -10 -27 -6 -4 -8 -11 -5 -16 4
-5 1 -9 -5 -9 -6 0 -9 -4 -6 -8 3 -5 -3 -18 -13 -28 -9 -11 -16 -25 -13 -32 2
-6 -1 -12 -6 -12 -6 0 -9 -8 -8 -17 2 -10 0 -20 -4 -23 -5 -3 -10 -14 -12 -25
-1 -11 -7 -23 -13 -27 -5 -4 -11 -11 -11 -15 -4 -24 -17 -53 -24 -53 -4 0 -11
-12 -16 -27 -4 -16 -8 -30 -10 -33 -7 -18 -16 -50 -14 -56 1 -3 -7 -12 -17
-20 -10 -7 -14 -14 -10 -14 5 0 -1 -15 -12 -33 -11 -19 -18 -37 -14 -40 3 -4
2 -7 -4 -7 -5 0 -10 -12 -9 -27 1 -16 -4 -38 -10 -51 -7 -13 -11 -36 -10 -52
1 -16 -2 -27 -6 -24 -7 5 -12 -10 -9 -28 0 -4 -4 -19 -9 -33 -10 -27 -22 -99
-24 -147 0 -16 -4 -28 -8 -28 -4 0 -5 -9 -3 -20 2 -11 0 -22 -5 -25 -5 -3 -7
-12 -3 -20 3 -8 0 -15 -6 -15 -6 0 -10 -3 -9 -7 4 -20 -16 -82 -28 -87 -8 -3
-14 -11 -14 -18 0 -9 3 -8 10 2 6 9 10 10 10 3 0 -7 -8 -17 -17 -22 -14 -8
-15 -10 -3 -11 13 0 13 -1 0 -10 -13 -9 -13 -10 0 -10 13 0 13 -1 0 -10 -13
-9 -13 -10 0 -10 13 0 13 -1 0 -10 -13 -9 -13 -10 0 -10 13 0 13 -1 0 -10 -13
-9 -13 -10 0 -10 9 0 11 -3 5 -8 -5 -4 -10 -16 -10 -27 0 -11 5 -23 10 -27 7
-5 7 -8 0 -8 -11 0 -12 -61 -1 -78 4 -7 2 -10 -7 -6 -15 5 -18 -5 -19 -78 0
-26 -4 -46 -7 -43 -4 2 -6 -8 -6 -23 1 -15 -1 -31 -4 -37 -8 -14 -11 -34 -17
-84 -2 -24 -8 -49 -14 -56 -5 -6 -7 -15 -3 -18 3 -4 2 -7 -3 -7 -5 0 -10 -15
-11 -32 -1 -18 -5 -51 -8 -73 -4 -22 -7 -46 -8 -52 0 -7 -3 -13 -7 -13 -3 0
-5 -14 -4 -30 1 -17 -3 -30 -9 -30 -6 0 -8 -3 -4 -6 3 -3 1 -19 -5 -35 -8 -22
-7 -34 3 -46 12 -14 12 -16 0 -9 -10 7 -12 2 -6 -22 4 -19 1 -41 -8 -59 -8
-15 -14 -44 -13 -65 0 -20 -2 -34 -5 -32 -4 2 -9 -3 -13 -11 -3 -8 -1 -17 5
-21 7 -4 7 -10 0 -18 -6 -7 -12 -28 -13 -47 -2 -19 -6 -36 -10 -39 -19 -14
-30 -178 -14 -199 8 -11 8 -13 -1 -8 -8 5 -11 0 -10 -13 1 -11 4 -20 8 -20 4
0 6 -8 4 -17 -1 -10 2 -24 8 -30 5 -7 6 -13 1 -13 -5 0 -2 -5 6 -10 10 -6 11
-10 3 -10 -7 0 -13 -5 -13 -11 0 -5 5 -7 11 -3 7 4 10 -6 8 -29 -2 -24 3 -42
15 -56 19 -21 19 -21 -5 -22 -13 -1 -27 -1 -30 -1 -3 1 -5 -10 -3 -23 1 -14
-3 -25 -9 -25 -7 0 -5 -5 3 -10 11 -7 11 -10 2 -10 -7 0 -10 -5 -6 -12 4 -7 3
-8 -5 -4 -11 7 -20 -6 -26 -41 -1 -10 -8 -17 -15 -15 -6 1 -9 -2 -5 -7 3 -6 1
-18 -4 -28 -17 -32 -31 -85 -24 -96 3 -6 1 -7 -5 -3 -7 4 -14 -4 -17 -21 -4
-15 -13 -47 -21 -69 -8 -23 -14 -46 -12 -50 1 -5 -3 -19 -10 -30 -6 -12 -8
-24 -5 -28 3 -3 2 -6 -4 -6 -13 0 -35 -49 -28 -61 4 -5 2 -9 -2 -9 -5 0 -10
-9 -11 -20 -4 -43 -6 -50 -14 -50 -4 0 -7 -3 -6 -7 1 -5 -3 -18 -10 -29 -6
-12 -8 -24 -5 -28 3 -3 1 -6 -5 -6 -7 0 -12 -9 -12 -20 0 -11 -5 -20 -12 -20
-6 0 -8 -3 -5 -6 4 -4 -2 -15 -14 -25 -14 -12 -16 -18 -7 -22 8 -3 6 -6 -5 -6
-10 -1 -17 -6 -15 -13 3 -7 -5 -21 -18 -33 -21 -20 -24 -25 -24 -46 0 -5 -6
-7 -12 -3 -7 4 -10 4 -6 -1 4 -4 2 -15 -5 -23 -10 -13 -9 -15 3 -8 8 4 5 -1
-7 -12 -13 -11 -24 -30 -26 -42 -2 -12 -10 -26 -17 -30 -8 -5 -11 -12 -7 -16
4 -4 0 -18 -8 -31 -9 -13 -13 -28 -10 -33 3 -5 -5 -16 -17 -24 -12 -9 -19 -16
-15 -16 4 0 0 -15 -10 -32 -9 -18 -16 -36 -15 -40 1 -4 -7 -10 -18 -13 -11 -4
-18 -10 -15 -14 2 -5 -4 -16 -15 -26 -11 -10 -20 -24 -20 -32 0 -7 -7 -16 -15
-19 -8 -4 -13 -10 -10 -14 3 -5 1 -11 -5 -15 -6 -4 -8 -10 -5 -15 3 -5 1 -11
-5 -15 -15 -9 -12 -28 3 -19 6 4 4 -2 -5 -13 -10 -11 -18 -27 -18 -36 0 -9 -4
-17 -9 -17 -5 0 -12 -17 -16 -37 -4 -20 -14 -43 -23 -51 -12 -10 -13 -12 -2
-7 10 4 9 2 -2 -8 -10 -8 -18 -19 -18 -26 0 -6 -5 -11 -10 -11 -6 0 -9 -3 -8
-7 1 -5 -4 -21 -11 -38 -7 -16 -13 -32 -13 -35 0 -3 -5 -14 -11 -25 -6 -11
-10 -23 -9 -27 1 -5 -5 -8 -14 -8 -8 0 -13 -4 -9 -9 3 -5 1 -12 -5 -16 -5 -3
-10 -15 -10 -26 0 -10 -5 -19 -11 -19 -5 0 -8 -4 -4 -9 3 -5 1 -12 -5 -16 -6
-4 -8 -10 -5 -15 3 -4 -2 -13 -10 -20 -8 -7 -15 -19 -15 -26 0 -8 -5 -14 -10
-14 -6 0 -9 -3 -8 -7 3 -16 -15 -43 -25 -36 -6 3 -7 1 -3 -5 4 -7 -6 -26 -23
-44 -17 -18 -31 -41 -31 -50 0 -10 -3 -18 -7 -18 -7 0 -13 -33 -16 -87 -1 -13
-4 -23 -7 -23 -9 0 -6 -42 3 -57 5 -8 3 -13 -4 -13 -8 0 -9 -3 0 -13 6 -8 8
-17 4 -21 -11 -11 -11 -76 0 -76 5 0 5 -6 -2 -13 -6 -8 -8 -17 -4 -21 11 -10
11 -46 0 -46 -6 0 -6 -5 0 -12 11 -15 11 -97 0 -115 -4 -6 -3 -14 2 -18 7 -4
7 -15 1 -30 -7 -17 -6 -25 1 -25 8 0 8 -4 1 -13 -13 -15 -11 -33 8 -67 7 -14
15 -43 18 -65 2 -22 7 -44 11 -50 5 -5 8 -22 7 -37 -1 -16 1 -28 4 -28 6 0 24
-37 78 -160 11 -25 30 -55 41 -67 12 -12 21 -27 21 -33 0 -5 5 -10 11 -10 5 0
17 -16 25 -35 8 -19 19 -35 25 -35 5 0 7 -4 4 -10 -3 -5 5 -21 19 -35 14 -14
26 -29 26 -33 1 -19 12 -42 21 -42 5 0 9 -9 9 -20 0 -11 5 -20 10 -20 6 0 10
-5 10 -11 0 -6 7 -17 15 -26 8 -8 13 -19 10 -24 -4 -5 1 -9 10 -9 9 0 14 -4
11 -9 -4 -5 -3 -11 1 -13 13 -5 44 -79 38 -89 -4 -5 -2 -9 2 -9 5 0 9 -8 10
-17 0 -10 4 -36 8 -58 11 -57 6 -375 -6 -375 -3 0 -5 -18 -4 -40 1 -22 -3 -40
-7 -40 -5 0 -5 -7 0 -16 6 -11 4 -26 -5 -45 -8 -15 -16 -50 -19 -76 -6 -54
-12 -88 -14 -88 -3 0 -10 -42 -13 -72 -1 -18 -6 -33 -10 -33 -5 0 -7 -8 -6
-17 1 -10 0 -20 -1 -23 -1 -3 -4 -18 -5 -35 -3 -29 -8 -55 -20 -105 -4 -14 -8
-34 -10 -45 -2 -11 -8 -32 -14 -47 -8 -21 -7 -28 1 -28 9 0 9 -3 0 -12 -7 -7
-12 -37 -12 -68 0 -31 -4 -60 -10 -66 -5 -5 -10 -33 -12 -61 -2 -29 -6 -53
-10 -53 -4 0 -7 -8 -7 -17 -1 -10 -3 -107 -5 -216 -3 -108 -8 -202 -11 -207
-3 -6 -2 -10 4 -10 5 0 9 -20 9 -45 0 -24 4 -50 8 -57 5 -7 10 -24 12 -37 2
-13 10 -33 18 -45 8 -13 11 -26 7 -31 -5 -4 -3 -5 3 -2 10 6 40 -39 36 -55 -2
-7 3 -9 23 -8 11 1 52 -45 48 -53 -2 -4 -1 -7 4 -6 20 3 34 -2 28 -11 -3 -5
-2 -10 4 -10 16 0 17 -64 1 -81 -62 -66 -78 -102 -57 -128 10 -12 9 -13 -2 -6
-11 6 -12 5 -5 -6 5 -8 10 -36 12 -64 1 -27 7 -52 12 -53 6 -2 10 -12 10 -23
0 -10 4 -19 9 -19 6 0 8 -9 6 -20 -2 -11 1 -20 7 -20 6 0 9 -3 5 -6 -3 -4 1
-13 9 -21 8 -8 12 -19 9 -24 -4 -5 -1 -9 6 -9 8 0 9 -4 0 -13 -6 -8 -7 -18 -2
-23 13 -14 35 -86 35 -114 0 -14 4 -28 10 -32 7 -5 7 -8 -2 -8 -8 0 -10 -5 -5
-13 4 -6 8 -30 9 -52 1 -22 3 -40 4 -40 1 0 3 -12 4 -27 1 -16 -1 -28 -4 -28
-3 0 -6 -8 -7 -17 -1 -10 -4 -41 -8 -70 -6 -41 -4 -56 9 -68 9 -9 14 -20 11
-25 -3 -5 1 -11 7 -13 10 -4 10 -6 1 -6 -18 -1 -16 -26 2 -45 10 -10 12 -17 5
-21 -8 -5 -8 -11 0 -20 6 -7 13 -24 16 -36 3 -13 6 -28 8 -34 2 -5 6 -22 11
-37 4 -16 11 -28 16 -28 5 0 9 -7 9 -15 0 -8 4 -15 8 -15 4 0 9 -12 10 -27 4
-44 8 -62 15 -69 3 -4 2 -15 -4 -25 -5 -11 -6 -19 -1 -19 9 0 7 -52 -3 -77 -2
-7 0 -15 4 -18 5 -3 9 -20 9 -39 0 -18 5 -44 12 -56 8 -15 8 -20 1 -16 -6 4
-11 2 -11 -3 0 -6 4 -11 8 -11 4 0 9 -10 10 -22 5 -39 9 -63 12 -63 1 0 3 -18
5 -40 5 -57 15 -138 20 -153 2 -6 0 -12 -6 -12 -6 0 -6 -7 1 -20 7 -13 7 -20
1 -20 -7 0 -7 -8 -1 -24 4 -13 5 -27 0 -32 -5 -5 -10 -34 -13 -64 -5 -66 -9
-83 -22 -92 -6 -5 -5 -8 2 -8 7 0 10 -6 7 -13 -3 -8 -7 -56 -9 -108 -4 -117
-3 -111 -15 -104 -5 3 -10 -1 -10 -9 0 -9 -4 -16 -8 -16 -4 0 -9 -10 -9 -22
-2 -26 -6 -48 -13 -63 -3 -5 -5 -36 -5 -67 0 -32 -3 -58 -7 -58 -3 0 -5 -8 -4
-17 2 -10 -3 -40 -10 -68 -7 -27 -14 -65 -16 -82 -1 -18 -5 -33 -9 -33 -3 0
-5 -11 -4 -25 2 -14 0 -25 -5 -25 -13 0 -19 -27 -7 -28 7 0 26 -3 42 -5 17 -3
36 0 44 7 12 9 13 8 6 -3 -6 -11 -4 -13 11 -7 10 5 24 8 29 7 66 -7 113 -7
128 1 9 5 17 5 17 1 0 -10 97 -10 106 0 4 4 13 2 21 -4 10 -9 13 -8 13 2 0 9
3 10 8 4 9 -13 82 -14 82 0 0 5 4 4 9 -4 7 -10 13 -11 30 -2 16 9 21 9 21 -1
0 -9 3 -9 10 2 5 8 10 10 10 4 0 -12 58 -12 77 -1 6 4 15 2 19 -4 4 -8 9 -7
15 2 5 8 9 9 9 4 0 -7 28 -10 78 -8 94 4 91 4 122 -1 14 -2 31 2 39 8 11 8 13
8 8 -1 -8 -13 30 -12 51 1 7 4 12 4 12 -1 0 -11 92 -10 109 1 8 5 16 4 21 -5
7 -10 12 -10 23 0 12 9 16 9 20 -1 3 -10 9 -10 25 -1 11 6 23 9 27 5 10 -10
29 -9 37 3 5 6 8 6 8 0 0 -15 144 -12 162 3 9 7 13 22 10 37 -2 14 0 25 6 25
6 0 8 9 5 20 -3 12 0 20 7 20 7 0 10 8 7 20 -3 11 -1 20 3 20 4 0 7 13 6 29
-1 17 2 28 6 25 4 -3 8 -1 8 4 0 6 9 8 20 5 11 -3 20 -14 20 -24 0 -11 5 -19
10 -19 6 0 10 -11 10 -25 0 -14 4 -25 8 -25 4 0 8 -8 9 -17 2 -46 8 -73 15
-73 4 0 8 -7 8 -16 0 -8 5 -12 10 -9 5 3 10 1 10 -4 0 -6 9 -11 20 -11 11 0
20 6 20 13 0 9 3 8 9 -2 7 -10 13 -11 30 -2 16 9 21 9 21 -1 0 -10 2 -10 9 1
7 11 9 11 13 0 4 -12 8 -12 20 -1 11 9 18 10 23 2 3 -5 13 -10 21 -10 9 0 12
5 8 11 -4 8 0 8 15 0 16 -9 21 -9 21 1 0 8 3 9 8 3 9 -13 132 -13 132 0 0 5 5
3 10 -5 9 -13 10 -13 10 0 0 13 2 13 9 1 8 -12 12 -12 25 -2 10 9 16 10 16 2
0 -11 64 -10 76 1 3 4 17 3 30 -2 17 -7 24 -6 24 3 0 7 3 8 8 2 11 -16 52 -18
52 -3 0 8 3 9 8 3 4 -5 16 -10 27 -10 11 0 23 5 27 10 5 7 8 6 8 0 0 -13 59
-13 79 -1 10 6 12 5 7 -2 -9 -16 7 -15 22 0 7 7 12 8 12 2 0 -7 106 -10 145
-3 6 1 21 -1 34 -5 18 -6 22 -5 15 5 -6 11 -5 12 7 2 16 -13 36 -12 58 1 8 5
16 4 21 -4 6 -9 9 -9 15 -1 5 9 10 9 20 1 10 -8 14 -7 18 2 4 10 6 10 6 1 1
-7 10 -13 21 -13 11 0 20 6 20 13 0 9 3 8 9 -2 7 -10 13 -11 30 -2 16 9 21 9
21 -1 0 -9 3 -9 10 2 5 8 10 10 10 4 0 -12 58 -12 77 -1 6 4 15 2 19 -4 4 -8
9 -7 15 2 5 8 9 9 9 4 0 -12 140 -13 158 -1 6 3 13 2 16 -3 6 -9 98 -7 115 3
6 4 11 1 11 -6 0 -9 3 -9 10 2 5 8 10 10 10 4 0 -6 19 -10 48 -9 l47 1 -2 85
c-1 46 -3 102 -4 124 0 22 1 57 3 78 2 21 0 43 -4 50 -3 6 -2 19 3 28 6 11 5
19 -2 21 -6 2 -12 17 -13 34 -2 17 -6 35 -9 41 -4 6 -4 39 -1 74 11 127 11
139 3 145 -5 3 -5 13 1 23 5 10 5 22 0 27 -5 5 -10 66 -13 137 -2 70 -7 130
-10 133 -3 4 -2 15 4 25 7 14 6 19 -3 19 -9 0 -9 3 0 12 7 7 8 17 2 27 -4 9
-10 39 -12 66 -2 28 -7 56 -11 62 -12 19 -18 52 -21 104 -2 25 -6 50 -9 57 -4
6 -3 13 3 17 7 4 7 12 0 26 -8 14 -7 19 2 19 8 0 9 3 3 8 -12 8 -14 112 -2
112 4 0 3 9 -3 20 -6 11 -7 20 -2 20 5 0 6 23 2 50 -4 33 -3 50 4 50 6 0 4 5
-4 10 -9 6 -11 10 -3 10 7 0 10 6 8 13 -3 7 -7 48 -9 92 -3 78 -34 235 -46
235 -3 0 -7 16 -8 36 -2 20 -7 45 -12 54 -6 11 -5 21 3 30 9 10 9 11 0 6 -9
-5 -13 0 -13 13 0 12 -4 21 -10 21 -5 0 -10 7 -10 16 0 8 -4 12 -10 9 -5 -3
-10 3 -10 14 0 10 -5 21 -10 23 -14 4 -17 99 -5 118 5 8 10 21 11 27 3 21 28
73 35 73 4 0 6 6 6 13 -1 24 16 77 25 77 5 0 6 5 3 10 -4 6 -1 18 7 27 7 9 12
17 10 17 -4 1 15 56 27 77 5 9 13 34 17 55 10 50 11 53 14 59 1 3 4 10 5 15 1
6 3 11 4 13 2 1 4 13 7 27 2 14 7 32 11 40 6 14 11 38 15 68 1 6 4 12 8 12 4
0 7 10 7 23 0 12 2 29 6 37 7 19 26 106 31 145 9 67 19 110 26 115 4 3 6 13 4
22 -1 10 2 20 7 24 5 3 9 18 9 35 0 16 4 29 9 29 5 0 12 15 16 33 9 37 12 46
15 50 1 1 4 16 5 32 7 71 12 95 22 107 6 7 14 31 18 53 8 45 8 40 0 118 -4 41
-2 64 7 75 8 10 9 13 1 9 -6 -4 -15 -2 -19 4 -4 8 -3 9 5 5 6 -4 13 0 17 11 3
10 10 26 15 37 8 14 7 17 -3 11 -7 -4 -2 3 12 14 17 14 20 21 10 21 -10 0 -11
3 -4 8 18 12 36 53 30 68 -3 8 -2 12 3 9 5 -3 12 -1 16 5 3 5 1 10 -4 10 -6 0
-11 5 -11 11 0 5 3 8 8 6 4 -3 13 1 20 9 8 9 9 14 2 14 -6 0 -8 5 -5 10 4 6
10 8 15 5 8 -5 4 45 -5 73 -3 7 -1 11 4 7 8 -5 25 59 20 81 -4 22 2 35 13 28
6 -4 8 -3 4 4 -3 6 -2 13 4 17 6 4 7 13 1 23 -4 9 -7 25 -6 35 2 10 -3 17 -11
17 -9 0 -12 5 -9 10 6 9 -8 14 -28 11 -5 -1 -6 3 -2 9 3 6 11 7 17 4 7 -5 8
-2 4 5 -5 7 -14 10 -22 7 -8 -3 -13 0 -11 7 1 7 -4 11 -11 9 -8 -1 -11 2 -7 8
3 5 1 10 -6 10 -8 0 -8 4 1 16 11 12 11 15 -1 12 -8 -2 -13 3 -12 10 2 6 -1
12 -7 12 -5 0 -7 7 -4 15 4 9 0 15 -10 15 -9 0 -16 4 -16 10 0 5 8 7 18 4 16
-5 16 -5 0 6 -10 6 -18 22 -18 35 0 14 -5 25 -12 25 -6 0 -8 3 -5 7 4 3 2 12
-4 20 -9 10 -8 13 0 13 8 0 10 8 6 20 -8 25 3 60 18 57 6 -1 11 5 12 13 0 9 9
15 23 14 17 -1 20 2 13 9 -6 6 -11 16 -11 22 0 5 5 3 10 -5 6 -10 10 -11 10
-2 0 6 7 12 16 12 9 0 12 5 8 12 -5 8 -2 9 11 4 15 -5 16 -4 6 8 -13 16 -4 25
21 21 10 -2 17 0 17 3 -3 21 3 32 17 32 8 0 13 4 10 9 -3 4 4 17 17 27 18 16
19 16 8 2 -19 -25 1 -22 22 2 10 12 22 18 27 15 6 -3 7 1 4 9 -4 10 -1 16 10
16 8 0 20 9 26 20 6 11 16 17 22 14 7 -4 8 -3 4 4 -4 7 -3 12 3 12 5 0 8 11 6
25 -1 14 3 25 9 25 6 0 4 5 -4 10 -9 6 -11 10 -3 10 7 0 10 6 7 13 -8 23 -10
97 -2 97 4 0 4 7 1 17 -5 12 -3 14 7 8 10 -6 12 -4 7 8 -4 11 -2 14 9 10 8 -3
14 1 14 11 0 9 5 16 11 16 5 0 8 -4 5 -8 -3 -5 1 -9 8 -9 9 0 12 7 8 16 -5 14
-4 14 14 1 18 -14 18 -14 5 3 -13 17 -12 21 15 42 16 13 33 21 39 18 5 -3 4 0
-2 8 -15 15 -17 33 -4 25 11 -7 23 22 14 36 -3 7 -1 8 5 4 7 -4 12 -1 12 9 0
10 5 14 13 9 9 -5 9 -4 0 6 -10 11 -9 16 5 26 11 9 13 13 4 14 -7 0 -10 5 -7
10 4 6 12 7 18 3 7 -4 6 0 -2 10 -11 14 -11 17 0 17 12 0 12 2 1 9 -11 6 -10
10 4 15 16 6 16 8 4 16 -12 8 -12 10 -1 10 7 0 11 6 7 15 -3 8 -2 15 2 15 5 0
6 16 4 36 -4 29 -2 35 9 28 11 -6 10 -3 -1 11 -11 14 -12 17 -1 10 11 -6 13
-1 9 24 -2 17 -2 31 2 31 4 0 5 14 2 30 -2 17 2 37 9 46 8 9 12 28 11 41 -2
13 2 30 8 38 6 8 9 19 5 25 -3 5 1 13 9 16 9 3 13 10 10 15 -3 5 -10 7 -15 4
-5 -3 -6 1 -3 9 3 9 11 13 18 9 6 -4 5 1 -3 10 -15 19 -26 23 -15 5 4 -7 3 -8
-4 -4 -7 4 -12 23 -12 42 0 21 4 33 10 29 6 -3 10 1 10 9 0 9 6 16 13 16 8 0
7 4 -3 10 -8 5 -10 10 -4 10 5 0 15 -5 21 -11 7 -7 10 -4 9 13 0 13 4 22 12
21 6 -2 12 2 12 8 0 5 6 7 13 3 6 -4 9 -4 5 1 -4 4 -3 16 2 26 6 9 13 35 16
56 3 21 11 41 17 45 6 4 8 10 4 14 -4 4 -2 13 4 21 6 7 8 13 5 13 -4 0 -2 8 3
18 7 13 6 23 -1 30 -8 8 -9 12 -1 12 9 0 19 31 25 78 1 6 6 12 11 12 6 0 7 3
4 7 -4 3 -2 12 4 20 7 7 13 39 15 70 2 31 7 59 11 62 8 6 13 29 16 69 0 12 5
22 9 22 4 0 7 3 6 8 -2 12 20 60 32 67 8 5 8 11 -1 21 -6 8 -7 14 -2 14 6 0 9
14 7 32 -2 18 1 35 8 40 10 6 10 8 0 8 -10 0 -10 5 -2 21 7 11 9 27 6 35 -3 8
-1 14 5 14 6 0 7 4 4 10 -3 6 -2 10 3 10 5 0 12 9 15 20 3 11 0 20 -6 20 -6 0
-2 7 9 15 14 11 16 15 4 15 -12 1 -12 3 3 14 19 15 23 31 5 20 -8 -5 -7 0 2
11 18 22 23 134 6 154 -9 12 -8 13 3 6 11 -6 13 -4 8 8 -3 10 -2 17 4 17 6 0
7 4 4 10 -8 13 -9 189 -2 197 4 3 2 14 -4 24 -7 14 -6 19 2 19 8 0 8 4 -1 15
-7 9 -8 15 -2 15 12 0 4 38 -12 59 -9 12 -8 13 4 6 12 -7 13 -6 4 6 -15 18
-22 119 -9 119 6 0 3 5 -5 10 -9 6 -11 10 -3 10 12 0 11 8 -4 48 -3 9 -7 26
-9 37 -3 24 -12 60 -14 60 -3 0 -9 39 -12 67 -1 16 -5 28 -8 28 -3 0 -6 8 -7
18 -3 40 -8 62 -13 62 -3 0 -6 8 -7 18 -3 31 -11 67 -26 109 -9 28 -11 40 -3
36 8 -5 8 -3 0 8 -6 8 -10 24 -9 37 1 13 -2 25 -6 27 -4 3 -5 21 -3 42 2 20
-2 43 -8 50 -6 7 -6 13 -1 13 5 0 9 24 8 52 0 29 5 62 12 74 7 11 10 24 6 27
-3 4 -1 7 5 7 7 0 12 7 12 15 0 8 6 15 13 15 8 0 7 4 -3 10 -8 5 -10 10 -4 10
10 0 21 25 30 68 3 16 34 41 51 42 18 0 63 41 57 52 -3 4 1 8 8 8 9 0 9 3 -2
10 -11 7 -11 10 -2 10 9 0 12 14 11 44 -2 25 -6 43 -10 41 -4 -3 -13 3 -20 12
-8 9 -9 14 -3 10 14 -8 39 37 29 54 -5 8 -4 10 3 5 8 -4 11 4 11 26 0 39 4 58
14 76 5 6 6 12 3 12 -3 0 3 9 14 20 11 11 25 20 30 20 6 0 10 4 10 9 0 9 42
10 50 1 13 -15 75 -38 78 -30 2 6 10 10 17 10 12 0 22 14 23 34 0 5 5 12 10
15 6 3 12 13 14 21 2 8 9 21 16 28 6 7 12 18 12 23 0 6 -6 7 -12 4 -7 -4 -4 1
6 9 11 9 15 16 8 16 -8 0 -9 7 -2 24 5 13 6 27 3 30 -4 3 -1 6 6 6 7 0 9 5 6
10 -3 6 1 13 9 16 9 3 14 10 11 14 -3 5 5 16 17 24 12 9 18 16 13 16 -6 0 -3
6 5 13 8 7 21 23 28 36 12 20 12 25 0 32 -10 7 -10 9 2 9 11 0 12 3 3 8 -13 8
-12 59 0 80 5 7 3 12 -5 13 -7 0 -3 4 10 9 12 5 22 14 22 20 0 5 9 10 20 10
11 0 20 5 20 11 0 5 5 7 10 4 6 -3 10 -1 10 5 0 6 5 8 10 5 6 -3 13 1 16 9 3
9 10 14 14 11 5 -3 16 2 24 11 14 14 31 21 59 23 5 1 5 6 2 11 -3 5 1 10 9 10
9 0 16 5 16 10 0 6 7 10 15 10 8 0 15 7 15 16 0 8 4 13 8 10 4 -2 19 12 32 32
14 20 29 40 35 44 5 4 6 8 2 8 -5 0 -1 7 7 16 9 8 14 20 11 25 -4 5 -2 9 4 9
5 0 8 8 7 17 -2 10 2 23 9 29 6 7 10 27 9 45 -1 18 5 44 14 57 9 14 17 32 19
41 1 9 7 17 12 19 6 2 11 16 11 32 0 16 4 30 9 32 5 2 11 17 14 33 2 17 7 37
10 45 4 8 9 29 12 45 8 38 13 60 15 60 3 0 10 49 11 68 0 9 6 17 12 17 7 0 6
4 -3 10 -8 5 -10 10 -4 10 6 0 10 16 9 35 0 19 3 35 8 35 5 0 5 10 2 21 -5 14
-4 19 4 15 6 -4 9 -1 5 7 -3 8 2 20 11 27 8 7 15 19 15 26 0 8 5 14 10 14 6 0
9 3 8 8 -4 15 15 77 26 84 8 6 8 8 0 8 -7 0 -9 11 -6 25 2 14 8 25 13 25 5 0
6 6 3 14 -8 22 15 94 34 105 12 7 25 4 45 -7 32 -19 66 -72 46 -72 -8 0 -8 -4
-2 -12 6 -7 9 -22 8 -33 -1 -11 -5 -54 -9 -95 -3 -41 -9 -88 -13 -105 -3 -16
-7 -40 -7 -52 -1 -13 -4 -23 -8 -23 -4 0 -10 -10 -14 -22 -4 -13 -10 -25 -14
-28 -4 -3 -11 -36 -14 -75 -10 -100 -16 -129 -27 -136 -6 -3 -9 -10 -8 -15 1
-5 0 -12 -1 -16 -1 -5 -3 -11 -4 -15 -4 -18 -30 -59 -48 -77 -11 -10 -18 -26
-15 -37 3 -11 0 -19 -5 -19 -6 0 -5 -6 2 -15 7 -8 10 -15 6 -15 -3 0 -1 -11 4
-24 5 -13 6 -27 3 -30 -9 -9 -10 -56 -1 -56 4 0 3 -11 -2 -24 -5 -13 -6 -27
-3 -30 4 -3 1 -6 -5 -6 -6 0 -9 -7 -6 -15 4 -8 1 -15 -7 -15 -7 0 -10 -2 -7
-6 3 -3 2 -21 -2 -40 -5 -21 -4 -34 2 -34 7 0 6 -5 -1 -13 -8 -11 -5 -19 14
-35 14 -12 25 -19 25 -14 0 4 4 2 8 -3 13 -19 62 -46 72 -40 6 3 10 0 10 -7 0
-9 3 -9 10 2 5 8 10 10 10 3 0 -6 8 -10 18 -9 9 2 20 -2 24 -7 3 -6 13 5 21
24 7 19 11 36 8 39 -3 3 -6 19 -6 35 0 17 -4 33 -8 36 -4 3 -8 14 -8 25 2 56
7 90 16 101 6 7 16 19 22 27 41 49 49 80 48 194 0 70 3 112 10 112 5 0 3 5 -5
10 -9 6 -10 10 -3 10 8 0 9 9 4 28 -10 33 -4 55 12 46 9 -5 9 -4 0 6 -8 8 -9
20 -2 37 6 17 6 22 -2 17 -8 -4 -8 -1 -1 12 5 11 9 59 10 107 0 49 3 91 6 94
3 3 1 14 -5 24 -7 13 -6 19 1 19 6 0 9 4 6 9 -4 5 -7 27 -8 50 -1 22 -5 38 -9
35 -4 -2 -8 5 -8 16 -1 11 -1 29 -2 40 0 11 -4 20 -9 20 -4 0 -11 7 -14 16 -3
8 -2 12 4 9 15 -9 12 5 -5 21 -8 9 -15 24 -15 34 0 10 -5 22 -10 25 -6 4 -8
10 -5 15 3 5 1 11 -5 15 -6 4 -8 11 -5 16 4 5 1 9 -5 9 -6 0 -8 5 -5 10 3 6 1
10 -5 10 -6 0 -9 4 -6 9 4 5 1 11 -4 13 -6 2 -13 10 -15 18 -8 38 -18 60 -26
60 -5 0 -9 9 -9 20 0 11 -4 20 -8 20 -15 0 -16 119 -2 138 4 3 7 21 9 38 0 9
6 12 13 8 7 -5 9 -2 6 7 -3 8 0 23 8 33 7 11 11 23 8 27 -3 5 -2 9 3 9 4 0 8
10 9 23 2 61 16 152 26 164 6 7 7 13 2 13 -5 0 5 12 21 28 46 42 66 77 52 91
-8 8 -8 11 1 11 8 0 5 9 -7 22 -11 11 -18 25 -15 29 3 5 7 42 9 84 2 41 7 80
12 87 4 7 9 45 10 83 2 39 4 87 5 108 0 20 4 37 8 37 7 0 11 45 11 103 0 11 5
15 12 10 8 -4 8 -1 -1 9 -9 12 -10 18 -2 23 6 4 9 13 6 21 -3 8 -1 14 5 14 6
0 6 7 -1 20 -6 11 -7 20 -2 20 5 0 6 18 2 40 -5 27 -4 40 4 40 6 0 4 5 -4 10
-8 5 -10 10 -5 10 6 0 9 19 7 45 -2 25 -8 45 -13 45 -5 0 -9 9 -9 21 0 11 -4
17 -10 14 -5 -3 -10 0 -10 8 0 7 -9 23 -19 34 -11 12 -17 24 -14 27 4 3 -1 6
-9 6 -9 0 -18 9 -21 21 -3 12 -10 18 -16 15 -5 -4 -13 -1 -17 5 -4 8 -3 9 4 5
7 -4 12 -2 12 3 0 6 -7 11 -15 11 -8 0 -15 5 -15 10 0 6 -7 10 -17 10 -9 0
-14 3 -10 6 3 3 1 18 -5 33 -10 26 -19 94 -18 139 0 13 -4 21 -8 18 -4 -3 -8
5 -9 17 0 12 -3 31 -6 42 -2 11 -8 35 -12 53 -4 17 -12 32 -17 32 -5 0 -4 9 2
20 6 12 7 20 1 20 -5 0 -8 8 -6 18 1 9 -2 23 -8 30 -5 6 -6 12 -1 12 5 0 9 18
9 40 0 22 -3 40 -7 40 -4 0 -5 6 -2 14 3 8 0 17 -7 22 -8 5 -10 3 -4 -6 5 -9
4 -11 -4 -6 -9 6 -9 11 0 22 9 11 8 14 -6 14 -10 0 -16 3 -12 6 7 8 -17 34
-32 34 -6 0 -10 3 -9 8 3 15 -22 62 -34 62 -9 0 -8 3 2 10 8 5 10 10 4 10 -5
0 -18 29 -29 65 -10 37 -22 68 -27 71 -5 3 -6 10 -3 15 4 5 2 9 -2 9 -5 0 -9
10 -10 22 -1 11 -6 24 -10 27 -8 6 -15 27 -16 49 0 6 -4 12 -9 12 -4 0 -8 9
-8 19 0 10 -8 22 -17 25 -14 6 -15 9 -4 15 10 6 9 10 -4 15 -9 3 -13 10 -10
16 3 5 2 10 -4 10 -6 0 -13 11 -17 25 -3 14 -10 22 -15 19 -5 -3 -10 0 -10 5
-1 6 -2 15 -3 20 -2 16 -77 81 -87 76 -5 -4 -9 -1 -9 5 0 6 -4 9 -9 6 -10 -7
-51 27 -51 43 0 6 -4 11 -10 11 -5 0 -10 5 -10 11 0 7 -12 22 -27 35 -16 13
-25 24 -21 24 3 0 -8 15 -25 33 -18 19 -35 32 -39 30 -7 -4 -12 12 -9 30 0 4
-4 7 -9 7 -12 0 -50 36 -50 48 0 4 -11 16 -25 26 -13 10 -23 21 -22 25 2 3 -7
16 -20 28 -13 12 -23 17 -23 10 0 -8 -4 -7 -9 3 -6 8 -8 17 -5 21 2 5 -5 6
-17 4 -17 -4 -19 -2 -8 11 10 12 9 13 -4 9 -8 -4 -18 -1 -23 6 -4 8 -3 10 4 5
7 -4 10 -2 6 7 -2 7 -11 14 -19 14 -8 0 -11 -5 -8 -11 3 -6 0 -5 -8 2 -7 6
-23 12 -35 12 -14 0 -24 8 -29 23 -11 35 -12 41 -3 53 6 8 3 11 -9 10 -10 0
-18 6 -18 14 -1 19 -37 80 -48 80 -5 0 -5 5 -2 10 3 6 -1 10 -9 10 -9 0 -15 6
-13 13 1 6 -4 11 -11 9 -8 -1 -11 2 -7 8 3 5 -5 15 -19 21 -14 7 -28 20 -31
31 -4 10 -11 18 -16 18 -6 0 -7 4 -4 10 3 5 0 7 -8 4 -8 -3 -17 2 -21 11 -3 9
-10 13 -16 10 -10 -6 -17 5 -22 40 -4 25 -20 45 -31 38 -5 -3 -4 5 3 17 12 22
7 35 -13 35 -7 0 -13 9 -15 19 -3 14 0 17 13 13 9 -4 14 -3 11 2 -6 9 63 75
79 76 6 1 9 6 8 13 -2 7 2 12 8 12 6 0 8 7 5 16 -6 15 -4 15 11 3 15 -12 16
-12 10 4 -4 10 -2 17 5 17 7 0 3 7 -8 15 -10 8 -16 15 -11 15 4 0 -7 15 -24
33 -17 17 -36 31 -41 29 -5 -1 -7 2 -4 7 3 5 -1 12 -10 15 -8 3 -13 10 -9 15
3 5 1 12 -5 16 -6 4 -8 11 -5 16 4 5 1 9 -4 9 -6 0 -11 5 -11 11 0 6 -10 25
-22 42 -12 17 -16 27 -9 23 10 -6 9 -2 -2 15 -8 13 -13 36 -12 52 1 15 -1 27
-4 27 -3 0 -6 46 -6 103 0 84 -4 110 -20 140 -11 20 -25 37 -31 37 -6 0 -17 7
-24 15 -7 8 -16 12 -21 9 -5 -3 -9 -1 -9 4 0 9 -69 39 -82 35 -4 -2 -8 1 -8 5
0 5 -16 14 -35 22 -19 8 -35 18 -35 22 0 5 -4 6 -10 3 -5 -3 -10 0 -10 7 0 9
-3 9 -10 -2 -8 -13 -10 -12 -10 4 0 12 -5 16 -15 13 -8 -4 -17 -2 -21 4 -3 6
-12 8 -19 5 -20 -7 -26 5 -12 22 7 10 8 13 1 9 -11 -6 -16 4 -31 63 -2 8 -6
30 -8 48 -2 18 -7 37 -10 42 -3 6 -2 10 2 10 5 0 8 18 8 40 0 22 -3 40 -8 40
-4 0 -5 5 -2 11 4 6 9 27 10 47 2 20 4 38 6 40 1 1 3 7 4 12 1 6 4 11 5 13 1
1 4 20 6 42 6 62 9 75 26 94 8 10 18 24 21 32 4 11 6 11 6 -1 1 -8 14 4 29 28
16 23 32 39 36 35 4 -5 6 -3 5 2 -5 18 12 75 22 75 6 0 7 5 4 10 -3 6 1 13 9
16 9 3 13 10 10 15 -3 5 0 9 6 9 7 0 10 6 7 14 -3 8 -2 16 4 18 5 2 11 13 13
25 3 12 10 31 16 42 6 12 8 21 5 21 -3 0 -1 9 5 21 6 11 13 30 15 42 3 12 9
31 14 42 13 28 24 58 27 70 6 30 17 55 25 55 5 0 6 6 3 14 -3 8 -1 16 3 19 17
11 2 169 -17 175 -5 2 -10 11 -10 21 0 26 -46 62 -74 57 -12 -2 -27 -1 -33 2
-11 8 -12 91 -1 107 4 6 3 17 -2 25 -5 8 -4 22 3 34 6 12 10 34 9 49 -1 16 1
34 5 40 4 6 8 18 9 27 0 8 4 33 8 55 13 71 13 85 2 85 -8 0 -8 2 0 8 7 4 11
28 10 54 -1 25 1 45 4 43 11 -7 15 208 6 295 -4 30 -7 85 -8 123 -1 37 -6 67
-11 67 -5 0 -4 7 3 15 9 10 9 15 1 15 -6 0 -11 9 -11 20 0 11 -4 20 -10 20 -5
0 -10 9 -10 20 0 11 -5 20 -11 20 -5 0 -8 4 -5 9 3 5 -1 14 -9 21 -8 7 -12 16
-9 21 3 5 0 9 -6 9 -6 0 -9 4 -6 9 4 5 2 11 -3 13 -8 3 -22 60 -24 101 -1 9
-7 17 -15 17 -7 0 -11 4 -7 9 3 5 0 15 -7 23 -7 7 -15 24 -16 38 -2 14 -10 32
-18 41 -8 9 -11 19 -7 22 3 4 1 7 -5 7 -7 0 -12 7 -12 15 0 8 -5 15 -12 15 -6
0 -8 3 -5 7 4 3 -3 20 -16 37 -12 17 -29 43 -36 59 -8 15 -18 27 -23 27 -5 0
-6 5 -3 10 3 6 -1 10 -9 10 -9 0 -16 5 -16 10 0 5 -3 9 -7 8 -22 -5 -113 56
-113 75 0 6 -15 25 -34 43 -19 18 -32 35 -29 37 2 3 -14 18 -36 33 -22 16 -41
35 -41 42 0 11 -13 16 -32 13 -5 0 -8 3 -8 8 0 10 -26 9 -36 -2 -4 -4 -13 -2
-21 4 -9 9 -13 8 -13 0 0 -8 -5 -9 -19 -1 -14 7 -21 6 -24 -3 -4 -9 -6 -9 -6
0 -1 9 -8 10 -24 4 -26 -10 -56 11 -95 67 -22 30 -52 47 -36 20 6 -10 5 -10
-7 -1 -8 7 -34 15 -57 19 -23 4 -42 11 -42 16 0 5 -4 7 -9 3 -5 -3 -16 2 -25
10 -9 9 -38 18 -66 20 -27 2 -54 6 -59 9 -5 4 -12 2 -16 -4 -4 -6 -12 -7 -18
-3 -7 4 -18 8 -26 10 -8 1 -17 5 -20 10 -3 4 -13 9 -21 11 -8 2 -23 11 -32 19
-10 9 -18 12 -18 7 0 -5 -4 -3 -8 4 -5 7 -11 9 -15 5z m1693 -10457 c0 -3 -4
-8 -10 -11 -5 -3 -10 -1 -10 4 0 6 5 11 10 11 6 0 10 -2 10 -4z m-530 -3620
c0 -2 -7 -9 -15 -16 -13 -11 -14 -10 -9 4 5 14 24 23 24 12z"/>
</g>
</svg>
